<?xml version="1.0" encoding="UTF-8" standalone="no"?>
<!-- Created with Inkscape (http://www.inkscape.org/) -->

<svg
   width="1024"
   height="356"
   viewBox="0 0 1024 356"
   version="1.1"
   id="svg1"
   inkscape:version="1.3.2 (091e20e, 2023-11-25, custom)"
   sodipodi:docname="CardBacks.svg"
   inkscape:export-filename="Card Backs 64x89.png"
   inkscape:export-xdpi="24"
   inkscape:export-ydpi="24"
   xml:space="preserve"
   xmlns:inkscape="http://www.inkscape.org/namespaces/inkscape"
   xmlns:sodipodi="http://sodipodi.sourceforge.net/DTD/sodipodi-0.dtd"
   xmlns:xlink="http://www.w3.org/1999/xlink"
   xmlns="http://www.w3.org/2000/svg"
   xmlns:svg="http://www.w3.org/2000/svg"
   xmlns:rdf="http://www.w3.org/1999/02/22-rdf-syntax-ns#"
   xmlns:cc="http://creativecommons.org/ns#"
   xmlns:dc="http://purl.org/dc/elements/1.1/"><sodipodi:namedview
     id="namedview1"
     pagecolor="#ffffff"
     bordercolor="#000000"
     borderopacity="0.24705882"
     inkscape:showpageshadow="2"
     inkscape:pageopacity="0.0"
     inkscape:pagecheckerboard="true"
     inkscape:deskcolor="#808080"
     inkscape:document-units="px"
     showborder="true"
     labelstyle="default"
     guidecolor="#000000"
     guideopacity="0.50196078"
     inkscape:zoom="1.4104167"
     inkscape:cx="441.35894"
     inkscape:cy="244.25406"
     inkscape:window-width="2736"
     inkscape:window-height="1714"
     inkscape:window-x="-12"
     inkscape:window-y="-12"
     inkscape:window-maximized="1"
     inkscape:current-layer="g4"
     showgrid="false"><sodipodi:guide
       position="0,1080"
       orientation="0,1920"
       id="guide1"
       inkscape:locked="false" /><sodipodi:guide
       position="1920,1080"
       orientation="1080,0"
       id="guide2"
       inkscape:locked="false" /><sodipodi:guide
       position="1920,0"
       orientation="0,-1920"
       id="guide3"
       inkscape:locked="false" /><sodipodi:guide
       position="0,0"
       orientation="-1080,0"
       id="guide4"
       inkscape:locked="false" /></sodipodi:namedview><defs
     id="defs1"><inkscape:path-effect
       effect="offset"
       id="path-effect2"
       is_visible="true"
       lpeversion="1.2"
       linejoin_type="miter"
       unit="px"
       offset="-10"
       miter_limit="4"
       attempt_force_join="false"
       update_on_knot_move="true" /><mask
       maskUnits="userSpaceOnUse"
       id="mask3"><rect
         style="display:inline;vector-effect:non-scaling-stroke;fill:#ffffff;stroke:none;stroke-width:1.05833;stroke-linecap:square;stroke-dasharray:none;-inkscape-stroke:hairline"
         id="rect4"
         width="256"
         height="356.00003"
         x="0"
         y="0"
         rx="14.000001"
         ry="14.000001"
         inkscape:label="Card" /></mask></defs><g
     inkscape:label="Layer 1"
     inkscape:groupmode="layer"
     id="layer1"><g
       id="g4"
       inkscape:label="CardBack"><rect
         style="display:inline;vector-effect:non-scaling-stroke;fill:#ffffff;stroke:none;stroke-width:1.05833;stroke-linecap:square;stroke-dasharray:none;-inkscape-stroke:hairline"
         id="use474"
         width="256"
         height="356.00003"
         x="0"
         y="0"
         rx="14.000001"
         ry="14.000001"
         inkscape:label="Card" /><image
         preserveAspectRatio="none"
         inkscape:svg-dpi="96"
         width="256"
         height="356"
         style="image-rendering:optimizeSpeed"
         xlink:href="CardBack4.svg"
         id="image1-6"
         x="0"
         y="1.5258789e-05" /><path
         id="rect2"
         style="display:inline;vector-effect:non-scaling-stroke;fill:#ffffff;stroke:none;stroke-width:1.05833;stroke-linecap:square;stroke-dasharray:none;-inkscape-stroke:hairline"
         inkscape:label="Border"
         d="M 14,0 C 6.2440072,0 0,6.2440072 0,14 v 328 c 0,7.75599 6.2440072,14 14,14 h 228 c 7.75599,0 14,-6.24401 14,-14 V 14 C 256,6.2440072 249.75599,0 242,0 Z m 0,10 h 228 c 2.22123,0 4,1.778773 4,4 v 328 c 0,2.22123 -1.77877,4 -4,4 H 14 c -2.221227,0 -4,-1.77877 -4,-4 V 14 c 0,-2.221227 1.778773,-4 4,-4 z" /></g><g
       id="g5"
       inkscape:label="CardBack"
       transform="translate(256)"
       style="display:inline"
       sodipodi:insensitive="true"><rect
         style="display:inline;vector-effect:non-scaling-stroke;fill:#ffffff;stroke:none;stroke-width:1.05833;stroke-linecap:square;stroke-dasharray:none;-inkscape-stroke:hairline"
         id="rect5"
         width="256"
         height="356.00003"
         x="0"
         y="0"
         rx="14.000001"
         ry="14.000001"
         inkscape:label="Card" /><image
         preserveAspectRatio="none"
         inkscape:svg-dpi="96"
         width="256"
         height="356.00003"
         style="image-rendering:optimizeSpeed"
         xlink:href="CardBack.svg"
         id="image5"
         x="-2.8421709e-14"
         y="2.8421709e-14"
         mask="url(#mask3)" /><path
         id="path5"
         style="display:inline;vector-effect:non-scaling-stroke;fill:#ffffff;stroke:none;stroke-width:1.05833;stroke-linecap:square;stroke-dasharray:none;-inkscape-stroke:hairline"
         inkscape:label="Border"
         d="M 14,0 C 6.2440072,0 0,6.2440072 0,14 v 328 c 0,7.75599 6.2440072,14 14,14 h 228 c 7.75599,0 14,-6.24401 14,-14 V 14 C 256,6.2440072 249.75599,0 242,0 Z m 0,10 h 228 c 2.22123,0 4,1.778773 4,4 v 328 c 0,2.22123 -1.77877,4 -4,4 H 14 c -2.221227,0 -4,-1.77877 -4,-4 V 14 c 0,-2.221227 1.778773,-4 4,-4 z" /></g><g
       id="g6"
       inkscape:label="CardBack"
       transform="translate(512)"
       sodipodi:insensitive="true"><rect
         style="display:inline;vector-effect:non-scaling-stroke;fill:#ffffff;stroke:none;stroke-width:1.05833;stroke-linecap:square;stroke-dasharray:none;-inkscape-stroke:hairline"
         id="rect6"
         width="256"
         height="356.00003"
         x="0"
         y="0"
         rx="14.000001"
         ry="14.000001"
         inkscape:label="Card" /><image
         preserveAspectRatio="none"
         inkscape:svg-dpi="96"
         width="256"
         height="356"
         style="image-rendering:optimizeSpeed"
         xlink:href="CardBack2.svg"
         id="image6"
         x="0"
         y="1.5258789e-05" /><path
         id="path6"
         style="display:inline;vector-effect:non-scaling-stroke;fill:#ffffff;stroke:none;stroke-width:1.05833;stroke-linecap:square;stroke-dasharray:none;-inkscape-stroke:hairline"
         inkscape:label="Border"
         d="M 14,0 C 6.2440072,0 0,6.2440072 0,14 v 328 c 0,7.75599 6.2440072,14 14,14 h 228 c 7.75599,0 14,-6.24401 14,-14 V 14 C 256,6.2440072 249.75599,0 242,0 Z m 0,10 h 228 c 2.22123,0 4,1.778773 4,4 v 328 c 0,2.22123 -1.77877,4 -4,4 H 14 c -2.221227,0 -4,-1.77877 -4,-4 V 14 c 0,-2.221227 1.778773,-4 4,-4 z" /></g><g
       id="g7"
       inkscape:label="CardBack"
       transform="translate(768)"
       sodipodi:insensitive="true"><rect
         style="display:inline;vector-effect:non-scaling-stroke;fill:#ffffff;stroke:none;stroke-width:1.05833;stroke-linecap:square;stroke-dasharray:none;-inkscape-stroke:hairline"
         id="rect7"
         width="256"
         height="356.00003"
         x="0"
         y="0"
         rx="14.000001"
         ry="14.000001"
         inkscape:label="Card" /><image
         preserveAspectRatio="none"
         inkscape:svg-dpi="96"
         width="256"
         height="356"
         style="image-rendering:optimizeSpeed"
         xlink:href="CardBack3.svg"
         id="image7"
         x="0"
         y="0" /><path
         id="path7"
         style="display:inline;vector-effect:non-scaling-stroke;fill:#ffffff;stroke:none;stroke-width:1.05833;stroke-linecap:square;stroke-dasharray:none;-inkscape-stroke:hairline"
         inkscape:label="Border"
         d="M 14,0 C 6.2440072,0 0,6.2440072 0,14 v 328 c 0,7.75599 6.2440072,14 14,14 h 228 c 7.75599,0 14,-6.24401 14,-14 V 14 C 256,6.2440072 249.75599,0 242,0 Z m 0,10 h 228 c 2.22123,0 4,1.778773 4,4 v 328 c 0,2.22123 -1.77877,4 -4,4 H 14 c -2.221227,0 -4,-1.77877 -4,-4 V 14 c 0,-2.221227 1.778773,-4 4,-4 z" /></g></g><metadata
     id="metadata4"><rdf:RDF><cc:Work
         rdf:about=""><dc:creator><cc:Agent><dc:title>Darren Marsh</dc:title></cc:Agent></dc:creator></cc:Work></rdf:RDF></metadata></svg>
